<svg width="21" height="21" viewBox="0 0 21 21" fill="none" xmlns="http://www.w3.org/2000/svg">
<path d="M21 14.7656V0.984375C21 0.438867 20.4984 0 19.875 0H4.5C2.01562 0 0 1.76367 0 3.9375V17.0625C0 19.2363 2.01562 21 4.5 21H19.875C20.4984 21 21 20.5611 21 20.0156V19.3594C21 19.0518 20.8359 18.7729 20.5828 18.5924C20.3859 17.9607 20.3859 16.1602 20.5828 15.5285C20.8359 15.3521 21 15.0732 21 14.7656ZM6 5.49609C6 5.36074 6.12656 5.25 6.28125 5.25H16.2188C16.3734 5.25 16.5 5.36074 16.5 5.49609V6.31641C16.5 6.45176 16.3734 6.5625 16.2188 6.5625H6.28125C6.12656 6.5625 6 6.45176 6 6.31641V5.49609ZM6 8.12109C6 7.98574 6.12656 7.875 6.28125 7.875H16.2188C16.3734 7.875 16.5 7.98574 16.5 8.12109V8.94141C16.5 9.07676 16.3734 9.1875 16.2188 9.1875H6.28125C6.12656 9.1875 6 9.07676 6 8.94141V8.12109ZM17.8781 18.375H4.5C3.67031 18.375 3 17.7885 3 17.0625C3 16.3406 3.675 15.75 4.5 15.75H17.8781C17.7891 16.4514 17.7891 17.6736 17.8781 18.375Z" fill="#727271"/>
</svg>
