<svg width="29" height="25" viewBox="0 0 29 25" fill="none" xmlns="http://www.w3.org/2000/svg">
<path d="M14.1155 6.48566L4.83372 14.9604V24.107C4.83372 24.3439 4.91858 24.571 5.06964 24.7385C5.2207 24.9059 5.42558 25 5.63921 25L11.2807 24.9838C11.4936 24.9826 11.6975 24.888 11.8477 24.7207C11.9978 24.5534 12.0822 24.3269 12.0821 24.0909V18.7493C12.0821 18.5125 12.167 18.2853 12.3181 18.1179C12.4691 17.9504 12.674 17.8563 12.8876 17.8563H16.1096C16.3232 17.8563 16.5281 17.9504 16.6792 18.1179C16.8302 18.2853 16.9151 18.5125 16.9151 18.7493V24.087C16.9148 24.2045 16.9354 24.3209 16.9757 24.4295C17.016 24.5382 17.0753 24.637 17.1501 24.7202C17.225 24.8034 17.3139 24.8694 17.4118 24.9145C17.5097 24.9595 17.6146 24.9827 17.7206 24.9827L23.3601 25C23.5737 25 23.7786 24.9059 23.9296 24.7385C24.0807 24.571 24.1656 24.3439 24.1656 24.107V14.9542L14.8858 6.48566C14.7767 6.38817 14.6408 6.33501 14.5006 6.33501C14.3605 6.33501 14.2246 6.38817 14.1155 6.48566ZM28.777 12.2458L24.5683 8.39993V0.669718C24.5683 0.492097 24.5047 0.321752 24.3914 0.196156C24.2781 0.0705595 24.1244 0 23.9642 0H21.145C20.9847 0 20.8311 0.0705595 20.7178 0.196156C20.6045 0.321752 20.5408 0.492097 20.5408 0.669718V4.72207L16.0336 0.611117C15.6011 0.21653 15.0583 0.000788785 14.4981 0.000788785C13.938 0.000788785 13.3952 0.21653 12.9627 0.611117L0.219245 12.2458C0.158071 12.3018 0.10746 12.3707 0.0703024 12.4484C0.033145 12.5262 0.0101697 12.6113 0.00268942 12.6989C-0.0047909 12.7865 0.00337032 12.8748 0.0267067 12.9589C0.0500432 13.043 0.0880975 13.1212 0.138695 13.189L1.42245 14.9191C1.47291 14.9871 1.53498 15.0434 1.6051 15.0848C1.67521 15.1262 1.75201 15.1519 1.83108 15.1603C1.91016 15.1688 1.98996 15.1598 2.06592 15.1341C2.14188 15.1083 2.21251 15.0661 2.27376 15.01L14.1155 4.19746C14.2246 4.09997 14.3605 4.04681 14.5006 4.04681C14.6408 4.04681 14.7767 4.09997 14.8858 4.19746L26.728 15.01C26.7892 15.0661 26.8597 15.1083 26.9356 15.1342C27.0114 15.1601 27.0911 15.1691 27.1701 15.1608C27.2491 15.1525 27.3259 15.1271 27.396 15.0859C27.4662 15.0447 27.5283 14.9886 27.5788 14.9208L28.8626 13.1906C28.9131 13.1225 28.951 13.0439 28.9741 12.9594C28.9972 12.875 29.0049 12.7863 28.997 12.6985C28.989 12.6107 28.9655 12.5255 28.9277 12.4478C28.89 12.3701 28.8388 12.3015 28.777 12.2458Z" fill="#727271"/>
</svg>
