<svg width="2956" height="746" viewBox="0 0 2956 746" fill="none" xmlns="http://www.w3.org/2000/svg">
<path d="M947.1 373.1H1132.45L1118.7 442.4H933.35L947.1 373.1ZM921.8 531.5H1131.9L1117.05 603H818.95L895.95 218H1186.9L1172.05 289.5H970.2L921.8 531.5ZM1260.06 603L1194.61 307.1H1279.31L1333.76 561.75H1289.76L1446.51 307.1H1532.31L1348.61 603H1260.06ZM1634.06 607.4C1611.33 607.4 1590.25 602.267 1570.81 592C1551.38 581.367 1535.8 566.15 1524.06 546.35C1512.33 526.55 1506.46 502.717 1506.46 474.85C1506.46 449.917 1510.5 427 1518.56 406.1C1527 385.2 1538.73 367.05 1553.76 351.65C1568.8 336.25 1586.21 324.333 1606.01 315.9C1625.81 307.1 1647.08 302.7 1669.81 302.7C1694.38 302.7 1715.46 307.283 1733.06 316.45C1750.66 325.617 1763.68 339.917 1772.11 359.35C1780.91 378.417 1784.03 403.167 1781.46 433.6C1779.63 468.433 1772.48 499.05 1760.01 525.45C1747.55 551.483 1730.68 571.65 1709.41 585.95C1688.51 600.25 1663.4 607.4 1634.06 607.4ZM1660.46 536.45C1677.33 536.45 1692.18 532.417 1705.01 524.35C1718.21 515.917 1728.48 504.55 1735.81 490.25C1743.51 475.583 1747.36 458.533 1747.36 439.1C1747.36 418.933 1741.31 402.983 1729.21 391.25C1717.48 379.517 1700.98 373.65 1679.71 373.65C1663.21 373.65 1648.36 377.867 1635.16 386.3C1621.96 394.367 1611.51 405.733 1603.81 420.4C1596.48 434.7 1592.81 451.567 1592.81 471C1592.81 491.167 1598.68 507.117 1610.41 518.85C1622.51 530.583 1639.2 536.45 1660.46 536.45ZM1719.31 603L1730.86 544.15L1750.11 456.15L1761.66 368.15L1773.76 307.1H1859.56L1800.71 603H1719.31ZM1880.15 603L1961.55 194.9H2047.35L1965.95 603H1880.15ZM2179.23 607.4C2156.5 607.4 2135.41 602.267 2115.98 592C2096.55 581.367 2080.96 566.15 2069.23 546.35C2057.5 526.55 2051.63 502.717 2051.63 474.85C2051.63 449.917 2055.66 427 2063.73 406.1C2072.16 385.2 2083.9 367.05 2098.93 351.65C2113.96 336.25 2131.38 324.333 2151.18 315.9C2170.98 307.1 2192.25 302.7 2214.98 302.7C2239.55 302.7 2260.63 307.283 2278.23 316.45C2295.83 325.617 2308.85 339.917 2317.28 359.35C2326.08 378.417 2329.2 403.167 2326.63 433.6C2324.8 468.433 2317.65 499.05 2305.18 525.45C2292.71 551.483 2275.85 571.65 2254.58 585.95C2233.68 600.25 2208.56 607.4 2179.23 607.4ZM2205.63 536.45C2222.5 536.45 2237.35 532.417 2250.18 524.35C2263.38 515.917 2273.65 504.55 2280.98 490.25C2288.68 475.583 2292.53 458.533 2292.53 439.1C2292.53 418.933 2286.48 402.983 2274.38 391.25C2262.65 379.517 2246.15 373.65 2224.88 373.65C2208.38 373.65 2193.53 377.867 2180.33 386.3C2167.13 394.367 2156.68 405.733 2148.98 420.4C2141.65 434.7 2137.98 451.567 2137.98 471C2137.98 491.167 2143.85 507.117 2155.58 518.85C2167.68 530.583 2184.36 536.45 2205.63 536.45ZM2264.48 603L2276.03 544.15L2295.28 456.15L2306.83 368.15L2318.93 307.1H2404.73L2345.88 603H2264.48ZM2464.37 607.4C2449.7 607.4 2437.6 602.817 2428.07 593.65C2418.53 584.117 2413.77 572.2 2413.77 557.9C2413.77 540.667 2419.27 526.917 2430.27 516.65C2441.63 506.017 2455.2 500.7 2470.97 500.7C2485.63 500.7 2497.55 505.283 2506.72 514.45C2516.25 523.617 2521.02 535.533 2521.02 550.2C2521.02 561.567 2518.27 571.65 2512.77 580.45C2507.63 588.883 2500.85 595.483 2492.42 600.25C2483.98 605.017 2474.63 607.4 2464.37 607.4Z" fill="#59504F" fill-opacity="0.9"/>
<path d="M0 64.8696H681.13V746H0V64.8696Z" fill="#D9D9D9"/>
<path d="M97.3037 149.957C97.3037 147.747 99.0946 145.957 101.304 145.957H563.608C565.817 145.957 567.608 147.747 567.608 149.957V223.044C567.608 225.253 565.817 227.044 563.608 227.044H101.304C99.0946 227.044 97.3037 225.253 97.3037 223.044V149.957Z" fill="#68605F" fill-opacity="0.42"/>
<path d="M97.3037 295.913C97.3037 293.704 99.0946 291.913 101.304 291.913H563.608C565.817 291.913 567.608 293.704 567.608 295.913V369C567.608 371.209 565.817 373 563.608 373H101.304C99.0946 373 97.3037 371.209 97.3037 369V295.913Z" fill="#68605F" fill-opacity="0.42"/>
<path d="M97.3037 441.87C97.3037 439.66 99.0946 437.87 101.304 437.87H563.608C565.817 437.87 567.608 439.66 567.608 441.87V514.957C567.608 517.166 565.817 518.957 563.608 518.957H101.304C99.0946 518.957 97.3037 517.166 97.3037 514.957V441.87Z" fill="#68605F" fill-opacity="0.42"/>
<path d="M97.3037 587.826C97.3037 585.617 99.0946 583.826 101.304 583.826H563.608C565.817 583.826 567.608 585.617 567.608 587.826V660.913C567.608 663.122 565.817 664.913 563.608 664.913H101.304C99.0946 664.913 97.3037 663.122 97.3037 660.913V587.826Z" fill="#68605F" fill-opacity="0.42"/>
<path d="M340.565 320.969V405.435H425.031L673.916 156.548L589.452 72.0842L340.565 320.969ZM739.245 91.2209C748.252 82.2137 748.252 68.6961 739.245 59.6889L686.311 6.75539C677.304 -2.2518 663.786 -2.2518 654.779 6.75539L613.108 48.4275L697.573 132.891L739.245 91.2209Z" fill="#68605F"/>
</svg>
